<svg width="30" height="30" viewBox="0 0 30 30" fill="none" xmlns="http://www.w3.org/2000/svg">
<path d="M15 0C6.71596 0 0 6.71596 0 15C0 23.284 6.71596 30 15 30C23.284 30 30 23.284 30 15C30 6.71596 23.284 0 15 0ZM10.9615 21.9231H8.07692V11.5385H10.9615V21.9231ZM9.51058 10.3846H9.49442C8.63365 10.3846 8.07692 9.74308 8.07692 8.94173C8.07692 8.12308 8.65096 7.5 9.52731 7.5C10.4048 7.5 10.9454 8.12308 10.9615 8.94173C10.9615 9.7425 10.4048 10.3846 9.51058 10.3846ZM21.9231 21.9231H19.0385V16.7308C19.0385 15 18.2042 14.4231 17.3077 14.4231C16.474 14.4231 15.5769 15 15.5769 16.7308V21.9231H12.6923V11.5385H15.5769V13.2692C15.7748 12.7033 16.7215 11.5385 18.4615 11.5385C20.7692 11.5385 21.9231 13.2692 21.9231 16.1538V21.9231Z" fill="white"/>
</svg>
