<svg width="44" height="44" viewBox="0 0 44 44" fill="none" xmlns="http://www.w3.org/2000/svg">
<g clip-path="url(#clip0_72_802)">
<path d="M13.0356 26.4502L16.0085 18.6932H17.112L20.28 26.4502H19.1131L18.2103 24.1004H14.9733L14.1233 26.4502H13.0356ZM15.2692 23.2649H17.8934L17.0854 21.1166C16.839 20.4651 16.656 19.9289 16.5364 19.508C16.436 20.012 16.2965 20.5072 16.1192 20.9894L15.2692 23.2649ZM21.0983 26.4502V18.6932H24.0184C24.5322 18.6932 24.9247 18.7179 25.196 18.7672C25.5763 18.8308 25.8948 18.9516 26.1516 19.1297C26.4083 19.3077 26.6153 19.5573 26.7723 19.8785C26.9308 20.2083 27.0112 20.5704 27.0071 20.9366C27.0071 21.5961 26.7977 22.1543 26.3788 22.6111C25.9599 23.0679 25.2031 23.2963 24.1084 23.2963H22.1228V26.4498H21.0983V26.4502ZM22.1228 22.3813H24.1229C24.7847 22.3813 25.2546 22.2578 25.5326 22.0109C25.8105 21.7639 25.9499 21.4165 25.9509 20.9687C25.9509 20.6443 25.869 20.3665 25.7053 20.1352C25.5507 19.9107 25.3214 19.7485 25.0584 19.6777C24.886 19.6316 24.5674 19.6086 24.1025 19.6086H22.1228V22.3813ZM28.4854 26.4502V18.6932H29.5099V26.4502H28.4854Z" fill="#F3F3F3"/>
<path d="M30.1867 33.4846H22.003C21.7618 33.4799 21.532 33.3806 21.363 33.208C21.1941 33.0354 21.0994 32.8032 21.0994 32.5614C21.0994 32.3197 21.1941 32.0875 21.363 31.9149C21.532 31.7423 21.7618 31.643 22.003 31.6383H30.1867C34.2934 31.6383 37.6352 28.2903 37.6352 24.1744C37.6352 20.4165 34.8334 17.233 31.1178 16.7692L30.4626 16.6873L30.3298 16.0387C29.5667 12.3137 26.2535 9.61149 22.452 9.61149C18.0174 9.61149 14.4097 13.2266 14.4097 17.6704C14.4097 17.7606 14.4118 17.8567 14.4159 17.9731L14.4535 19.0336L13.3986 18.9238C13.1774 18.9008 12.9551 18.8892 12.7327 18.8892C9.22539 18.8892 6.37185 21.7486 6.37185 25.2632C6.37185 28.7778 9.22539 31.6373 12.7327 31.6373H14.949C15.1902 31.6419 15.42 31.7413 15.589 31.9139C15.7579 32.0865 15.8526 32.3186 15.8526 32.5604C15.8526 32.8022 15.7579 33.0343 15.589 33.2069C15.42 33.3796 15.1902 33.4789 14.949 33.4835H12.7327C8.20949 33.4846 4.53076 29.7969 4.53076 25.2643C4.53076 20.7811 8.13087 17.1248 12.5862 17.0453C12.7014 15.2244 13.3162 13.4707 14.3628 11.9777C15.4095 10.4847 16.8474 9.31034 18.5178 8.58422C20.1882 7.85809 22.0263 7.60839 23.8294 7.86264C25.6324 8.1169 27.3304 8.86524 28.736 10.0251C30.3058 11.3236 31.4392 13.0744 31.9826 15.0401C36.2972 15.8867 39.4763 19.705 39.4763 24.1751C39.4763 26.644 38.4976 29.0118 36.7555 30.7577C35.0134 32.5035 32.6505 33.4844 30.1867 33.4846Z" fill="#F3F3F3"/>
<path d="M24.104 36.5399C23.8736 36.5404 23.6514 36.4541 23.4816 36.298L19.4622 32.6034L23.2671 28.6323C23.4377 28.4622 23.6681 28.3657 23.9088 28.3636C24.1495 28.3614 24.3814 28.4537 24.5551 28.6208C24.7287 28.7878 24.8302 29.0163 24.8379 29.2574C24.8456 29.4985 24.7588 29.733 24.5961 29.9108L22.0971 32.5194L24.7268 34.9365C24.8635 35.0623 24.959 35.2265 25.001 35.4075C25.043 35.5886 25.0295 35.7782 24.9622 35.9515C24.8949 36.1247 24.777 36.2736 24.6239 36.3786C24.4707 36.4836 24.2896 36.5398 24.104 36.5399Z" fill="#F3F3F3"/>
</g>
<defs>
<clipPath id="clip0_72_802">
<rect width="34.9412" height="28.7751" fill="white" transform="translate(4.5293 7.76477)"/>
</clipPath>
</defs>
</svg>
