<svg width="44" height="44" viewBox="0 0 44 44" fill="none" xmlns="http://www.w3.org/2000/svg">
<g clip-path="url(#clip0_72_755)">
<path fill-rule="evenodd" clip-rule="evenodd" d="M11.6019 7.76807C9.60818 7.76807 8.13294 9.5127 8.199 11.4047C8.2624 13.2224 8.18003 15.5766 7.58726 17.4965C6.99237 19.4217 5.98699 20.6417 4.34448 20.7983V22.5663C5.98699 22.7232 6.99237 23.9426 7.58719 25.8681C8.18003 27.788 8.26233 30.1422 8.19893 31.9599C8.13287 33.8516 9.60811 35.5965 11.6021 35.5965H32.0309C34.0246 35.5965 35.4996 33.8519 35.4335 31.9599C35.3701 30.1422 35.4525 27.788 36.0453 25.8681C36.6402 23.9426 37.6431 22.7227 39.2857 22.5663V20.7983C37.6432 20.6414 36.6402 19.422 36.0453 17.4965C35.4524 15.5769 35.3701 13.2224 35.4335 11.4047C35.4996 9.51297 34.0246 7.76807 32.0309 7.76807H11.6016H11.6019ZM28.0334 24.8983C28.0334 27.5035 26.0898 29.0835 22.8642 29.0835H17.3734C17.2163 29.0835 17.0657 29.0211 16.9546 28.9101C16.8435 28.7991 16.7812 28.6485 16.7812 28.4914V14.8732C16.7812 14.7162 16.8435 14.5656 16.9546 14.4546C17.0657 14.3435 17.2163 14.2811 17.3734 14.2811H22.8329C25.5225 14.2811 27.2877 15.7377 27.2877 17.974C27.2877 19.5436 26.1002 20.9488 24.5874 21.195V21.2769C26.6468 21.5027 28.0334 22.9287 28.0334 24.8983ZM22.2655 16.1581H19.1347V20.5794H21.7716C23.8101 20.5794 24.934 19.7587 24.934 18.2918C24.9338 16.9171 23.9675 16.1581 22.2655 16.1581ZM19.1347 22.3336V27.206H22.3807C24.5031 27.206 25.6273 26.3545 25.6273 24.7544C25.6273 23.1543 24.4716 22.3334 22.2442 22.3334H19.1347V22.3336Z" fill="#7952B3"/>
</g>
<defs>
<clipPath id="clip0_72_755">
<rect width="34.9412" height="27.8351" fill="white" transform="translate(4.34448 7.76465)"/>
</clipPath>
</defs>
</svg>
