<svg width="44" height="44" viewBox="0 0 44 44" fill="none" xmlns="http://www.w3.org/2000/svg">
<path d="M21.9998 5.98535C18.8324 5.98535 15.7361 6.9246 13.1025 8.68432C10.4689 10.444 8.41628 12.9452 7.20416 15.8715C5.99205 18.7978 5.6749 22.0178 6.29283 25.1244C6.91076 28.2309 8.43602 31.0845 10.6757 33.3242C12.9154 35.5639 15.7689 37.0891 18.8755 37.7071C21.9821 38.3249 25.2021 38.0078 28.1284 36.7957C31.0547 35.5836 33.5558 33.5309 35.3155 30.8973C37.0753 28.2638 38.0145 25.1675 38.0145 22.0001C38.0097 17.7542 36.3209 13.6835 33.3186 10.6813C30.3163 7.67897 26.2457 5.99017 21.9998 5.98535ZM35.3343 27.8236H30.8298C31.199 26.149 31.404 24.4424 31.4419 22.728H36.5215C36.4393 24.4847 36.037 26.2115 35.3343 27.8236ZM7.47812 22.728H12.5577C12.5956 24.4424 12.8007 26.149 13.1699 27.8236H8.66539C7.96266 26.2115 7.5603 24.4847 7.47812 22.728ZM8.66539 16.1765H13.1699C12.8007 17.8512 12.5956 19.5577 12.5577 21.2721H7.47812C7.5603 19.5154 7.96266 17.7886 8.66539 16.1765ZM22.7278 14.7206V7.5082C25.3767 7.94497 27.6516 10.7374 28.924 14.7206H22.7278ZM29.3338 16.1765C29.7284 17.8477 29.9481 19.5555 29.989 21.2721H22.7278V16.1765H29.3338ZM21.2719 7.5082V14.7206H15.0756C16.3481 10.7374 18.6229 7.94497 21.2719 7.5082ZM21.2719 16.1765V21.2721H14.0129C14.0538 19.5555 14.2734 17.8477 14.668 16.1765H21.2719ZM14.0129 22.728H21.2719V27.8236H14.6658C14.2719 26.1523 14.053 24.4446 14.0129 22.728ZM21.2719 29.2795V36.4919C18.6229 36.0551 16.3481 33.2628 15.0756 29.2795H21.2719ZM22.7278 36.4919V29.2795H28.924C27.6516 33.2628 25.3767 36.0551 22.7278 36.4919ZM22.7278 27.8236V22.728H29.9868C29.9459 24.4446 29.7263 26.1524 29.3316 27.8236H22.7278ZM31.4419 21.2721C31.404 19.5577 31.199 17.8512 30.8298 16.1765H35.3343C36.037 17.7886 36.4393 19.5154 36.5215 21.2721H31.4419ZM34.5888 14.7206H30.4534C29.8216 12.3486 28.6336 10.1614 26.9877 8.34024C30.1879 9.51558 32.8766 11.7725 34.5888 14.7206ZM17.012 8.34024C15.3661 10.1614 14.178 12.3486 13.5462 14.7206H9.4108C11.123 11.7725 13.8117 9.51558 17.012 8.34024ZM9.4108 29.2795H13.5462C14.178 31.6515 15.3661 33.8387 17.012 35.6599C13.8117 34.4845 11.123 32.2276 9.4108 29.2795ZM26.9877 35.6599C28.6336 33.8387 29.8216 31.6515 30.4534 29.2795H34.5888C32.8766 32.2276 30.1879 34.4845 26.9877 35.6599Z" fill="white"/>
</svg>
