<svg width="44" height="44" viewBox="0 0 44 44" fill="none" xmlns="http://www.w3.org/2000/svg">
<g clip-path="url(#clip0_72_735)">
<path d="M9.17294 35.9126L6.59985 4.45911L37.3292 4.52231L34.6084 35.9126L22.0805 39.541L9.17294 35.9126Z" fill="#1B73BA"/>
<path d="M22.0803 36.5033V7.45471L34.7349 7.49685L32.4782 33.4867L22.0803 36.5033Z" fill="#1C88C7"/>
<path d="M31.5925 11.1676H12.1257L12.6531 14.9646H21.8907L12.8008 18.8674L13.3279 22.5379H26.7207L26.2354 27.664L21.7009 28.5502L17.5884 27.4955L17.2719 24.5841H13.4967L14.0027 30.6388L22.1016 32.8959L29.8632 30.4278L30.8545 18.593H22.6498L31.5923 14.8803L31.5925 11.1676Z" fill="white"/>
</g>
<defs>
<clipPath id="clip0_72_735">
<rect width="30.7293" height="35.2" fill="white" transform="translate(6.59985 4.40002)"/>
</clipPath>
</defs>
</svg>
