<svg width="44" height="44" viewBox="0 0 44 44" fill="none" xmlns="http://www.w3.org/2000/svg">
<path d="M41.8409 20.1627L23.8332 2.15325C23.5866 1.90652 23.2938 1.7108 22.9716 1.57726C22.6493 1.44373 22.3039 1.375 21.9551 1.375C21.6063 1.375 21.2609 1.44373 20.9386 1.57726C20.6163 1.7108 20.3235 1.90652 20.0769 2.15325L16.3376 5.89353L21.0811 10.6374C21.6387 10.4478 22.2382 10.4181 22.8118 10.5517C23.3854 10.6854 23.9101 10.977 24.3264 11.3936C24.745 11.8128 25.0373 12.3413 25.1698 12.9188C25.3024 13.4963 25.2698 14.0993 25.0759 14.6592L29.6468 19.2315C30.7528 18.8505 32.0291 19.0972 32.9122 19.9819C33.2058 20.2754 33.4387 20.6238 33.5976 21.0073C33.7565 21.3908 33.8382 21.8019 33.8382 22.217C33.8382 22.6321 33.7565 23.0432 33.5976 23.4267C33.4387 23.8102 33.2058 24.1586 32.9122 24.4521C32.3957 24.9691 31.7159 25.2912 30.9887 25.3635C30.2615 25.4357 29.5317 25.2537 28.9235 24.8483C28.3154 24.4429 27.8665 23.8393 27.6533 23.1402C27.4401 22.441 27.4757 21.6896 27.7541 21.0138L23.491 16.75L23.4906 27.9709C23.7997 28.1237 24.0819 28.3256 24.3264 28.5687C24.62 28.8622 24.8529 29.2107 25.0117 29.5943C25.1706 29.9779 25.2524 30.389 25.2524 30.8041C25.2524 31.2193 25.1706 31.6304 25.0117 32.014C24.8529 32.3976 24.62 32.7461 24.3264 33.0396C23.0915 34.2747 21.09 34.2747 19.857 33.0396C19.4887 32.6714 19.217 32.218 19.0661 31.7195C18.9152 31.221 18.8898 30.6929 18.9922 30.1822C19.0945 29.6715 19.3215 29.1941 19.6528 28.7923C19.9842 28.3905 20.4097 28.0768 20.8914 27.8791V16.5537C20.5039 16.3954 20.1521 16.1608 19.857 15.8637C18.9217 14.9294 18.6968 13.5568 19.1761 12.408L14.5003 7.73076L2.15323 20.0791C1.9065 20.3259 1.71078 20.6188 1.57726 20.9412C1.44373 21.2636 1.375 21.6092 1.375 21.9581C1.375 22.3071 1.44373 22.6527 1.57726 22.9751C1.71078 23.2975 1.9065 23.5904 2.15323 23.8372L20.1609 41.8471C20.6591 42.3452 21.3347 42.625 22.0391 42.625C22.7435 42.625 23.4191 42.3452 23.9172 41.8471L41.8409 23.9212C42.3391 23.4227 42.6189 22.7468 42.6189 22.042C42.6189 21.3372 42.3391 20.6612 41.8409 20.1627Z" fill="#DE4C36"/>
</svg>
