<svg width="44" height="44" viewBox="0 0 44 44" fill="none" xmlns="http://www.w3.org/2000/svg">
<path fill-rule="evenodd" clip-rule="evenodd" d="M21.9998 2.0625C10.6105 2.0625 1.375 11.296 1.375 22.6873C1.375 31.8002 7.28464 39.5308 15.4795 42.2584C16.5099 42.4496 16.8884 41.811 16.8884 41.2662C16.8884 40.7744 16.8692 39.1497 16.8604 37.4263C11.1225 38.6739 9.91176 34.9928 9.91176 34.9928C8.97355 32.6089 7.62174 31.975 7.62174 31.975C5.75011 30.6949 7.7628 30.7216 7.7628 30.7216C9.83354 30.8667 10.9244 32.847 10.9244 32.847C12.7639 35.9994 15.7493 35.0881 16.9263 34.5615C17.1114 33.2285 17.6459 32.3183 18.2357 31.8032C13.6547 31.2824 8.83864 29.5136 8.83864 21.6107C8.83864 19.359 9.64467 17.5191 10.964 16.0744C10.7496 15.5553 10.0436 13.4576 11.1635 10.6166C11.1635 10.6166 12.8951 10.0623 16.8365 12.7308C18.482 12.2734 20.2467 12.0436 21.9998 12.0357C23.7519 12.0436 25.5177 12.2728 27.1663 12.7301C31.1029 10.0616 32.8324 10.616 32.8324 10.616C33.955 13.4565 33.2491 15.5546 33.0349 16.0737C34.3574 17.5184 35.1576 19.3583 35.1576 21.61C35.1576 29.5317 30.3327 31.2756 25.74 31.7865C26.4801 32.4265 27.1393 33.682 27.1393 35.6059C27.1393 38.3655 27.1154 40.5865 27.1154 41.2659C27.1154 41.8147 27.487 42.4578 28.5321 42.2553C36.7222 39.525 42.625 31.7967 42.625 22.6873C42.6247 11.2966 33.3901 2.0625 21.9998 2.0625Z" fill="white"/>
<path d="M9.18652 31.6748C9.14109 31.7773 8.97989 31.808 8.83303 31.738C8.68275 31.6711 8.59907 31.5314 8.64757 31.4286C8.69197 31.3227 8.85352 31.2937 9.00277 31.3644C9.15305 31.4316 9.23843 31.5727 9.18618 31.6752L9.18652 31.6748ZM10.0219 32.6069C9.9239 32.6981 9.73161 32.6557 9.60115 32.5112C9.4659 32.3678 9.44062 32.1755 9.54069 32.083C9.64247 31.9921 9.82895 32.0351 9.9642 32.1786C10.0988 32.3241 10.1254 32.5147 10.0223 32.6072L10.0219 32.6069ZM10.8355 33.7944C10.7091 33.8825 10.5021 33.8002 10.3744 33.6168C10.248 33.433 10.248 33.2128 10.3778 33.125C10.5052 33.0369 10.7091 33.1164 10.8389 33.2981C10.9646 33.4843 10.9646 33.7049 10.8355 33.7944ZM11.9492 34.9423C11.8365 35.067 11.5954 35.0335 11.4192 34.8637C11.2392 34.6974 11.189 34.4607 11.302 34.3364C11.4168 34.2114 11.6589 34.2463 11.8362 34.415C12.0162 34.581 12.0705 34.818 11.9499 34.942L11.9492 34.9423ZM13.4861 35.6086C13.4359 35.7702 13.2044 35.8436 12.9704 35.7746C12.7372 35.7039 12.5845 35.5151 12.6323 35.3518C12.6801 35.1889 12.9134 35.1127 13.1487 35.1862C13.382 35.2565 13.5346 35.4444 13.4861 35.6086ZM15.1744 35.7319C15.1802 35.902 14.9821 36.0427 14.7372 36.0462C14.4903 36.052 14.2905 35.914 14.2881 35.7466C14.2881 35.5748 14.4821 35.4358 14.7287 35.431C14.9735 35.4266 15.1747 35.5632 15.1747 35.7316L15.1744 35.7319ZM16.7448 35.4649C16.7741 35.6305 16.6037 35.8009 16.3602 35.8464C16.1211 35.8908 15.8991 35.7876 15.8684 35.6233C15.839 35.4532 16.0125 35.2828 16.2516 35.2388C16.4954 35.1967 16.714 35.2965 16.7448 35.4649Z" fill="white"/>
</svg>
