<svg width="44" height="44" viewBox="0 0 44 44" fill="none" xmlns="http://www.w3.org/2000/svg">
<mask id="mask0_72_777" style="mask-type:luminance" maskUnits="userSpaceOnUse" x="6" y="5" width="33" height="34">
<path d="M37.8467 19.0233H22.5908V25.3489H31.3722C30.5536 29.3675 27.1304 31.6744 22.5908 31.6744C17.2327 31.6744 12.9164 27.3582 12.9164 22C12.9164 16.6419 17.2327 12.3256 22.5908 12.3256C24.8978 12.3256 26.9815 13.1442 28.6187 14.4838L33.3815 9.72095C30.4792 7.19072 26.7583 5.62793 22.5908 5.62793C13.5118 5.62793 6.21875 12.921 6.21875 22C6.21875 31.0791 13.5118 38.3721 22.5908 38.3721C30.7769 38.3721 38.2187 32.4186 38.2187 22C38.2187 21.0326 38.0699 19.9907 37.8467 19.0233Z" fill="white"/>
</mask>
<g mask="url(#mask0_72_777)">
<path d="M4.73047 31.6744V12.3256L17.3816 22L4.73047 31.6744Z" fill="#FBBC05"/>
</g>
<mask id="mask1_72_777" style="mask-type:luminance" maskUnits="userSpaceOnUse" x="6" y="5" width="33" height="34">
<path d="M37.8467 19.0233H22.5908V25.3489H31.3722C30.5536 29.3675 27.1304 31.6744 22.5908 31.6744C17.2327 31.6744 12.9164 27.3582 12.9164 22C12.9164 16.6419 17.2327 12.3256 22.5908 12.3256C24.8978 12.3256 26.9815 13.1442 28.6187 14.4838L33.3815 9.72095C30.4792 7.19072 26.7583 5.62793 22.5908 5.62793C13.5118 5.62793 6.21875 12.921 6.21875 22C6.21875 31.0791 13.5118 38.3721 22.5908 38.3721C30.7769 38.3721 38.2187 32.4186 38.2187 22C38.2187 21.0326 38.0699 19.9907 37.8467 19.0233Z" fill="white"/>
</mask>
<g mask="url(#mask1_72_777)">
<path d="M4.73047 12.3256L17.3816 22L22.5909 17.4605L40.4514 14.5581V4.13953H4.73047V12.3256Z" fill="#EA4335"/>
</g>
<mask id="mask2_72_777" style="mask-type:luminance" maskUnits="userSpaceOnUse" x="6" y="5" width="33" height="34">
<path d="M37.8467 19.0233H22.5908V25.3489H31.3722C30.5536 29.3675 27.1304 31.6744 22.5908 31.6744C17.2327 31.6744 12.9164 27.3582 12.9164 22C12.9164 16.6419 17.2327 12.3256 22.5908 12.3256C24.8978 12.3256 26.9815 13.1442 28.6187 14.4838L33.3815 9.72095C30.4792 7.19072 26.7583 5.62793 22.5908 5.62793C13.5118 5.62793 6.21875 12.921 6.21875 22C6.21875 31.0791 13.5118 38.3721 22.5908 38.3721C30.7769 38.3721 38.2187 32.4186 38.2187 22C38.2187 21.0326 38.0699 19.9907 37.8467 19.0233Z" fill="white"/>
</mask>
<g mask="url(#mask2_72_777)">
<path d="M4.73047 31.6744L27.056 14.5581L32.9351 15.3023L40.4514 4.13953V39.8605H4.73047V31.6744Z" fill="#34A853"/>
</g>
<mask id="mask3_72_777" style="mask-type:luminance" maskUnits="userSpaceOnUse" x="6" y="5" width="33" height="34">
<path d="M37.8467 19.0233H22.5908V25.3489H31.3722C30.5536 29.3675 27.1304 31.6744 22.5908 31.6744C17.2327 31.6744 12.9164 27.3582 12.9164 22C12.9164 16.6419 17.2327 12.3256 22.5908 12.3256C24.8978 12.3256 26.9815 13.1442 28.6187 14.4838L33.3815 9.72095C30.4792 7.19072 26.7583 5.62793 22.5908 5.62793C13.5118 5.62793 6.21875 12.921 6.21875 22C6.21875 31.0791 13.5118 38.3721 22.5908 38.3721C30.7769 38.3721 38.2187 32.4186 38.2187 22C38.2187 21.0326 38.0699 19.9907 37.8467 19.0233Z" fill="white"/>
</mask>
<g mask="url(#mask3_72_777)">
<path d="M40.4513 39.8604L17.3815 22L14.4048 19.7674L40.4513 12.3256V39.8604Z" fill="#4285F4"/>
</g>
</svg>
