<svg width="44" height="44" viewBox="0 0 44 44" fill="none" xmlns="http://www.w3.org/2000/svg">
<g clip-path="url(#clip0_72_746)">
<path d="M4.3999 4.40002H39.5999V39.6H4.3999V4.40002Z" fill="#F0DB4F"/>
<path d="M36.719 31.2049C36.4613 29.5988 35.414 28.2504 32.3123 26.9923C31.2349 26.4971 30.0337 26.1424 29.6756 25.326C29.5485 24.8508 29.5318 24.5831 29.6121 24.2954C29.8429 23.3618 30.9572 23.0707 31.8405 23.3384C32.4093 23.5291 32.948 23.9675 33.2726 24.6668C34.7917 23.6831 34.7883 23.6898 35.849 23.0139C35.4609 22.4116 35.2534 22.1339 34.9991 21.8763C34.0857 20.8557 32.841 20.3304 30.8501 20.3705C30.5055 20.414 30.1575 20.4609 29.8128 20.5044C28.8191 20.7553 27.8721 21.2773 27.3167 21.9766C25.6504 23.8671 26.1255 27.1763 28.1532 28.5382C30.1508 30.0372 33.0852 30.3785 33.46 31.7804C33.8247 33.4969 32.1986 34.0523 30.5824 33.855C29.3912 33.6074 28.7288 33.0017 28.0127 31.9009C26.6944 32.6638 26.6944 32.6638 25.3393 33.4434C25.6605 34.1461 25.9984 34.4639 26.5371 35.0729C29.0868 37.6594 35.4676 37.5322 36.6119 33.6174C36.6588 33.4835 36.9666 32.5868 36.719 31.2049ZM23.5357 20.578H20.2432C20.2432 23.4221 20.2299 26.2461 20.2299 29.0902C20.2299 30.9004 20.3236 32.56 20.0291 33.0686C19.5473 34.069 18.2992 33.9453 17.7304 33.7512C17.1516 33.4668 16.8571 33.0619 16.5158 32.4898C16.4221 32.3258 16.3519 32.1987 16.3284 32.1886C15.4351 32.734 14.545 33.2827 13.6516 33.8282C14.0967 34.7416 14.7524 35.5346 15.5923 36.0499C16.847 36.8027 18.5334 37.0336 20.2968 36.6287C21.4445 36.2941 22.4349 35.6015 22.9535 34.5475C23.703 33.1656 23.5424 31.4926 23.5357 29.6423C23.5524 26.6242 23.5357 23.6061 23.5357 20.578Z" fill="#323330"/>
</g>
<defs>
<clipPath id="clip0_72_746">
<rect width="35.2" height="35.2" fill="white" transform="translate(4.3999 4.40002)"/>
</clipPath>
</defs>
</svg>
