<svg width="44" height="44" viewBox="0 0 44 44" fill="none" xmlns="http://www.w3.org/2000/svg">
<path d="M39.5999 22.2784C39.5999 19.9464 36.6797 17.7364 32.2026 16.3658C33.2358 11.8022 32.7766 8.17141 30.7533 7.00898C30.2869 6.73631 29.7416 6.60715 29.1461 6.60715V8.20729C29.4761 8.20729 29.7416 8.27187 29.964 8.39385C30.9398 8.95354 31.3631 11.0847 31.0331 13.8257C30.9542 14.5002 30.825 15.2106 30.6672 15.9353C29.2609 15.5909 27.7255 15.3254 26.1111 15.1532C25.1425 13.8257 24.138 12.6202 23.1264 11.5654C25.4654 9.39125 27.6609 8.20011 29.1533 8.20011V6.59998C27.1802 6.59998 24.5972 8.00637 21.9856 10.446C19.3739 8.02073 16.7909 6.62868 14.8178 6.62868V8.22881C16.303 8.22881 18.5057 9.41277 20.8447 11.5726C19.8403 12.6274 18.8358 13.8257 17.8815 15.1532C16.26 15.3254 14.7246 15.5909 13.3183 15.9425C13.1533 15.2249 13.0313 14.5289 12.9452 13.8616C12.608 11.1205 13.0241 8.98942 13.9927 8.42255C14.208 8.29339 14.4878 8.23599 14.8178 8.23599V6.63585C14.2151 6.63585 13.6699 6.76501 13.1963 7.03768C11.1802 8.20011 10.7282 11.8237 11.7685 16.373C7.30573 17.7507 4.3999 19.9536 4.3999 22.2784C4.3999 24.6105 7.32008 26.8205 11.7972 28.1911C10.764 32.7547 11.2232 36.3855 13.2465 37.5479C13.7129 37.8206 14.2582 37.9497 14.8609 37.9497C16.834 37.9497 19.4169 36.5433 22.0286 34.1037C24.6403 36.529 27.2232 37.921 29.1963 37.921C29.799 37.921 30.3443 37.7919 30.8178 37.5192C32.834 36.3568 33.286 32.7332 32.2456 28.1839C36.6941 26.8134 39.5999 24.6033 39.5999 22.2784ZM30.2582 17.4924C29.9927 18.418 29.6627 19.3724 29.2896 20.3267C28.9954 19.7527 28.6869 19.1786 28.3497 18.6046C28.0196 18.0306 27.6681 17.4709 27.3165 16.9255C28.3353 17.0762 29.3183 17.2628 30.2582 17.4924ZM26.9721 25.1343C26.4125 26.103 25.8385 27.0215 25.243 27.8753C24.1739 27.9686 23.0905 28.0188 21.9999 28.0188C20.9165 28.0188 19.8331 27.9686 18.7712 27.8825C18.1757 27.0286 17.5945 26.1173 17.0349 25.1558C16.4896 24.2158 15.9945 23.2615 15.5425 22.3C15.9873 21.3385 16.4896 20.3769 17.0277 19.4369C17.5873 18.4683 18.1613 17.5498 18.7569 16.6959C19.8259 16.6026 20.9093 16.5524 21.9999 16.5524C23.0833 16.5524 24.1667 16.6026 25.2286 16.6887C25.8241 17.5426 26.4053 18.4539 26.9649 19.4154C27.5102 20.3554 28.0053 21.3098 28.4573 22.2713C28.0053 23.2328 27.5102 24.1943 26.9721 25.1343ZM29.2896 24.2015C29.677 25.163 30.0071 26.1245 30.2797 27.0573C29.3398 27.2869 28.3497 27.4807 27.3237 27.6314C27.6752 27.0789 28.0268 26.512 28.3569 25.9308C28.6869 25.3567 28.9954 24.7755 29.2896 24.2015ZM22.0143 31.8577C21.347 31.1689 20.6797 30.4011 20.0196 29.5616C20.6654 29.5903 21.3255 29.6118 21.9927 29.6118C22.6672 29.6118 23.3344 29.5975 23.9873 29.5616C23.3416 30.4011 22.6743 31.1689 22.0143 31.8577ZM16.6761 27.6314C15.6573 27.4807 14.6743 27.2941 13.7344 27.0645C13.9999 26.1389 14.3299 25.1845 14.703 24.2302C14.9972 24.8042 15.3057 25.3783 15.643 25.9523C15.9802 26.5263 16.3246 27.086 16.6761 27.6314ZM21.9784 12.6992C22.6456 13.388 23.3129 14.1558 23.973 14.9953C23.3273 14.9666 22.6672 14.9451 21.9999 14.9451C21.3255 14.9451 20.6582 14.9594 20.0053 14.9953C20.651 14.1558 21.3183 13.388 21.9784 12.6992ZM16.669 16.9255C16.3174 17.478 15.9658 18.0449 15.6358 18.6261C15.3057 19.2002 14.9972 19.7742 14.703 20.3482C14.3156 19.3867 13.9856 18.4252 13.7129 17.4924C14.6528 17.2699 15.643 17.0762 16.669 16.9255ZM10.1757 25.9093C7.63578 24.8258 5.99273 23.405 5.99273 22.2784C5.99273 21.1519 7.63578 19.724 10.1757 18.6476C10.7927 18.3821 11.4672 18.1454 12.1631 17.9229C12.5721 19.3293 13.1102 20.7931 13.7775 22.2928C13.1174 23.7853 12.5865 25.2419 12.1847 26.6412C11.4743 26.4187 10.7999 26.1747 10.1757 25.9093ZM14.0358 36.163C13.06 35.6034 12.6367 33.4722 12.9667 30.7312C13.0456 30.0567 13.1748 29.3463 13.3326 28.6216C14.7389 28.966 16.2743 29.2315 17.8887 29.4037C18.8573 30.7312 19.8618 31.9367 20.8734 32.9915C18.5344 35.1656 16.3389 36.3568 14.8465 36.3568C14.5237 36.3496 14.251 36.285 14.0358 36.163ZM31.0546 30.6953C31.3918 33.4364 30.9757 35.5675 30.0071 36.1343C29.7918 36.2635 29.512 36.3209 29.182 36.3209C27.6968 36.3209 25.4941 35.1369 23.1551 32.9771C24.1595 31.9223 25.164 30.724 26.1183 29.3965C27.7398 29.2243 29.2752 28.9588 30.6815 28.6072C30.8465 29.332 30.9757 30.028 31.0546 30.6953ZM33.8169 25.9093C33.1999 26.1747 32.5255 26.4115 31.8295 26.634C31.4205 25.2276 30.8824 23.7638 30.2151 22.2641C30.8752 20.7716 31.4062 19.315 31.808 17.9157C32.5183 18.1382 33.1927 18.3821 33.8241 18.6476C36.364 19.7311 38.0071 21.1519 38.0071 22.2784C37.9999 23.405 36.3569 24.8329 33.8169 25.9093Z" fill="#61DAFB"/>
<path d="M21.9928 25.5577C23.8037 25.5577 25.2717 24.0895 25.2717 22.2785C25.2717 20.4674 23.8037 18.9993 21.9928 18.9993C20.1819 18.9993 18.7139 20.4674 18.7139 22.2785C18.7139 24.0895 20.1819 25.5577 21.9928 25.5577Z" fill="#61DAFB"/>
</svg>
