<svg width="44" height="44" viewBox="0 0 44 44" fill="none" xmlns="http://www.w3.org/2000/svg">
<path d="M28.387 7.23853C28.0583 6.89848 27.6635 6.62937 27.2268 6.44778C26.7902 6.2662 26.3209 6.17599 25.8481 6.18272H8.7572C8.28433 6.17604 7.81511 6.26627 7.37845 6.44785C6.9418 6.62943 6.54695 6.89852 6.21826 7.23853C5.87821 7.56729 5.60909 7.96221 5.42751 8.39896C5.24593 8.83571 5.15572 9.30502 5.16246 9.77796V34.2231C5.15573 34.6958 5.24594 35.165 5.42753 35.6016C5.60911 36.0382 5.87823 36.4329 6.21826 36.7615C6.54688 37.1016 6.9417 37.3707 7.37838 37.5523C7.81505 37.7339 8.2843 37.8241 8.75717 37.8173H24.5136C23.8791 37.173 23.5264 36.3032 23.5332 35.3989V32.7717H8.75719C8.38013 32.7691 8.01925 32.6181 7.75268 32.3514C7.4861 32.0848 7.33527 31.7238 7.33283 31.3468V9.77796C7.33503 9.40083 7.48578 9.03976 7.75241 8.77303C8.01904 8.5063 8.38005 8.3554 8.75719 8.35306H25.8481C26.2252 8.3555 26.5862 8.5064 26.8529 8.7731C27.1196 9.03979 27.2705 9.4008 27.273 9.77796V15.4666H29.4433V9.77796C29.4498 9.305 29.3595 8.83571 29.1778 8.39899C28.9961 7.96226 28.727 7.56734 28.387 7.23853ZM16.2913 34.3723C16.5245 34.1453 16.8291 34.0059 17.1534 33.9779C17.4777 33.9498 17.8017 34.0348 18.0704 34.2184C18.3392 34.4019 18.5362 34.6728 18.6281 34.9851C18.7199 35.2973 18.701 35.6317 18.5744 35.9316C18.4478 36.2315 18.2214 36.4783 17.9336 36.6303C17.6458 36.7823 17.3143 36.8301 16.9953 36.7655C16.6762 36.701 16.3894 36.5281 16.1833 36.2762C15.9772 36.0243 15.8645 35.7088 15.8645 35.3834C15.8629 35.1946 15.9 35.0076 15.9734 34.8337C16.0468 34.6598 16.155 34.5028 16.2913 34.3723Z" fill="#EDEDED"/>
<path d="M38.1266 17.2426C37.9055 17.0137 37.6398 16.8326 37.346 16.7104C37.0522 16.5882 36.7365 16.5275 36.4183 16.5321H27.0175C26.3765 16.5339 25.7623 16.7894 25.3091 17.2426C24.8559 17.6958 24.6005 18.31 24.5986 18.9509V35.3988C24.6005 36.0397 24.8559 36.6538 25.3091 37.107C25.7624 37.5602 26.3765 37.8155 27.0175 37.8173H36.4182C37.0591 37.8155 37.6733 37.5601 38.1266 37.107C38.5798 36.6538 38.8353 36.0397 38.8373 35.3988V18.951C38.8417 18.6328 38.7809 18.3171 38.6587 18.0233C38.5364 17.7294 38.3554 17.4638 38.1266 17.2426ZM32.3982 36.8597C32.2412 37.0122 32.0363 37.1059 31.8182 37.1246C31.6001 37.1434 31.3822 37.0861 31.2015 36.9626C31.0208 36.8391 30.8883 36.6568 30.8267 36.4468C30.765 36.2367 30.7778 36.0118 30.863 35.8102C30.9482 35.6085 31.1005 35.4425 31.2941 35.3404C31.4877 35.2382 31.7107 35.2061 31.9253 35.2496C32.1398 35.2931 32.3327 35.4094 32.4713 35.5789C32.6099 35.7483 32.6856 35.9605 32.6856 36.1794C32.6867 36.3064 32.6618 36.4323 32.6123 36.5493C32.5629 36.6663 32.49 36.7719 32.3982 36.8597ZM37.3769 33.4635C37.3753 33.7173 37.2738 33.9602 37.0943 34.1397C36.9149 34.3192 36.672 34.4207 36.4182 34.4224H27.0175C26.7637 34.4206 26.5209 34.3191 26.3415 34.1396C26.162 33.9602 26.0605 33.7173 26.0588 33.4635V18.951C26.0606 18.6973 26.1621 18.4544 26.3415 18.275C26.5209 18.0956 26.7638 17.994 27.0175 17.9923H36.4182C36.672 17.994 36.9148 18.0955 37.0943 18.2749C37.2737 18.4544 37.3753 18.6972 37.3769 18.951L37.3769 33.4635Z" fill="#FF68F0"/>
</svg>
