<svg width="44" height="44" viewBox="0 0 44 44" fill="none" xmlns="http://www.w3.org/2000/svg">
<g clip-path="url(#clip0_72_751)">
<path d="M34.5056 24.1043C33.284 24.1112 32.2263 24.4044 31.3391 24.841C31.0115 24.1931 30.6839 23.6269 30.6294 23.2041C30.568 22.7131 30.4929 22.4129 30.568 21.8264C30.643 21.2398 30.9842 20.4077 30.9842 20.3395C30.9773 20.2782 30.9091 19.9781 30.2062 19.9712C29.5034 19.9644 28.8959 20.1077 28.8277 20.2918C28.7594 20.4759 28.6229 20.8988 28.5342 21.3353C28.4114 21.9764 27.1284 24.2476 26.3982 25.4411C26.1593 24.9773 25.9546 24.5681 25.9136 24.2407C25.8522 23.7497 25.7771 23.4495 25.8522 22.8631C25.9273 22.2764 26.2685 21.4444 26.2685 21.3762C26.2617 21.3148 26.1934 21.0148 25.4906 21.0079C24.7876 21.0011 24.1803 21.1443 24.112 21.3285C24.0438 21.5126 23.9687 21.9491 23.8186 22.372C23.6752 22.7948 21.9691 26.5869 21.5255 27.5759C21.3003 28.0806 21.1025 28.483 20.9591 28.7558C20.8158 29.0286 20.9523 28.7762 20.9386 28.8035C20.8158 29.0354 20.7475 29.165 20.7475 29.165V29.1719C20.652 29.3424 20.5496 29.506 20.5018 29.506C20.4677 29.506 20.3994 29.0491 20.5154 28.4217C20.7679 27.1053 21.3821 25.0524 21.3754 24.9774C21.3754 24.9433 21.4913 24.5818 20.9795 24.3977C20.4813 24.2135 20.3039 24.5205 20.2629 24.5205C20.222 24.5205 20.1879 24.6296 20.1879 24.6296C20.1879 24.6296 20.7406 22.3176 19.1301 22.3176C18.12 22.3176 16.7279 23.4156 16.0386 24.4182C15.6018 24.6569 14.6737 25.1616 13.691 25.7004C13.3156 25.905 12.9266 26.1233 12.5581 26.3211L12.4831 26.2391C10.5313 24.1589 6.92119 22.6857 7.07133 19.8894C7.12593 18.8732 7.4808 16.1928 14.005 12.9464C19.3486 10.2864 23.6275 11.0162 24.3713 12.6394C25.4291 14.9583 22.0851 19.2688 16.5301 19.8894C14.4145 20.1281 13.3021 19.3097 13.0223 19.0028C12.7289 18.6822 12.6879 18.6686 12.5787 18.73C12.4013 18.8254 12.5105 19.1119 12.5787 19.2824C12.7425 19.7121 13.425 20.4759 14.5851 20.8579C15.6019 21.1921 18.0861 21.3762 21.0888 20.2168C24.4533 18.9141 27.0807 15.2994 26.3095 12.278C25.5247 9.20201 20.42 8.19261 15.5951 9.9045C12.722 10.9275 9.61003 12.5235 7.37161 14.6173C4.71007 17.0999 4.28695 19.2688 4.46439 20.169C5.08548 23.3814 9.51448 25.4752 11.2888 27.0234C11.2001 27.0711 11.1182 27.1188 11.0432 27.1598C10.156 27.5963 6.77788 29.3628 5.93165 31.2315C4.97622 33.3458 6.08179 34.8668 6.81883 35.0714C9.09819 35.7057 11.4322 34.5667 12.6947 32.6911C13.9503 30.8155 13.8002 28.3807 13.2202 27.269L13.1996 27.228L13.8957 26.8188C14.3462 26.5528 14.7898 26.3073 15.1787 26.0958C14.9604 26.6892 14.8034 27.3917 14.7215 28.4147C14.626 29.6151 15.1174 31.1701 15.7657 31.7839C16.0523 32.0498 16.3935 32.0567 16.6051 32.0567C17.3558 32.0567 17.697 31.436 18.0723 30.6927C18.5364 29.7856 18.9459 28.7353 18.9459 28.7353C18.9459 28.7353 18.434 31.5793 19.8331 31.5793C20.3449 31.5793 20.8567 30.9177 21.0887 30.5767V30.5836C21.0887 30.5836 21.1024 30.5631 21.1297 30.5153C21.1583 30.473 21.1856 30.4298 21.2116 30.3858V30.3722C21.4163 30.0175 21.8736 29.2059 22.556 27.8623C23.4363 26.13 24.2826 23.9611 24.2826 23.9611C24.2826 23.9611 24.3645 24.4931 24.617 25.3661C24.7671 25.8845 25.0946 26.4505 25.3471 27.003C25.1424 27.2894 25.0196 27.4532 25.0196 27.4532L25.0264 27.46C24.8627 27.6782 24.6783 27.9102 24.4873 28.142C23.7912 28.9741 22.9586 29.9222 22.8495 30.195C22.7198 30.5155 22.7471 30.7542 22.9996 30.9452C23.1839 31.0816 23.5114 31.1089 23.8595 31.0816C24.4873 31.0406 24.9241 30.8839 25.1425 30.7883C25.4837 30.6655 25.8727 30.4814 26.248 30.2086C26.9305 29.7039 27.3468 28.9878 27.3058 28.033C27.2853 27.5078 27.1147 26.9895 26.9032 26.4984C26.9646 26.4097 27.0261 26.321 27.0874 26.2256C28.1657 24.65 28.9983 22.9177 28.9983 22.9177C28.9983 22.9177 29.0802 23.4497 29.3327 24.3227C29.4623 24.766 29.7217 25.2504 29.9537 25.7278C28.9437 26.553 28.309 27.5079 28.0906 28.1353C27.688 29.2948 28.0019 29.82 28.5956 29.9427C28.8617 29.9973 29.244 29.8745 29.5305 29.7518C29.8854 29.6358 30.3153 29.4379 30.7112 29.1447C31.3937 28.64 32.0488 27.9376 32.0147 26.9895C31.9942 26.553 31.8782 26.1234 31.7212 25.7141C32.5811 25.3595 33.6934 25.1549 35.1062 25.3254C38.143 25.68 38.7436 27.5761 38.6277 28.3672C38.5116 29.1585 37.877 29.5949 37.6653 29.7313C37.4538 29.8609 37.3855 29.9087 37.406 30.0041C37.4333 30.1474 37.5288 30.1405 37.7131 30.1133C37.9656 30.0723 39.31 29.4654 39.3646 28.0059C39.4465 26.13 37.6653 24.084 34.5056 24.1043ZM11.0841 31.9954C10.0809 33.0935 8.66825 33.5095 8.0677 33.1549C7.41938 32.7798 7.67181 31.1633 8.90711 29.9971C9.6578 29.2878 10.6337 28.633 11.2752 28.2306C11.4185 28.142 11.6369 28.0124 11.8962 27.8555C11.9372 27.8283 11.9645 27.8146 11.9645 27.8146C12.0122 27.7873 12.0668 27.7532 12.1214 27.7191C12.5787 29.3832 12.1419 30.8428 11.0841 31.9954ZM18.4204 27.0098C18.0723 27.8623 17.3353 30.0516 16.8917 29.9289C16.5095 29.8266 16.2775 28.1692 16.8166 26.5324C17.0896 25.707 17.6696 24.725 18.0109 24.343C18.5637 23.7292 19.1642 23.5246 19.3144 23.7769C19.4918 24.1043 18.6388 26.4778 18.4204 27.0098ZM24.4737 29.9016C24.3235 29.9767 24.187 30.0312 24.1256 29.9903C24.0779 29.963 24.187 29.8607 24.187 29.8607C24.187 29.8607 24.9445 29.0491 25.2448 28.674C25.4154 28.4558 25.6201 28.2035 25.8385 27.917V27.9988C25.8386 28.9809 24.8968 29.6356 24.4737 29.9016ZM29.1415 28.8376C29.0323 28.7558 29.0461 28.5034 29.4145 27.7123C29.5579 27.3985 29.8854 26.8734 30.4518 26.3755C30.5201 26.5801 30.5611 26.7778 30.5542 26.962C30.5474 28.1897 29.6739 28.6467 29.1415 28.8376Z" fill="#CF649A"/>
</g>
<defs>
<clipPath id="clip0_72_751">
<rect width="34.9412" height="26.1899" fill="white" transform="translate(4.43701 9.05884)"/>
</clipPath>
</defs>
</svg>
