<svg width="44" height="44" viewBox="0 0 44 44" fill="none" xmlns="http://www.w3.org/2000/svg">
<g clip-path="url(#clip0_72_759)">
<path d="M21.7225 11.675C17.0638 11.675 14.1519 14.0028 12.9872 18.6581C14.7343 16.3304 16.7725 15.4575 19.102 16.0395C20.4309 16.3714 21.3809 17.335 22.4324 18.4014C24.1454 20.1389 26.1277 22.1497 30.4578 22.1497C35.1166 22.1497 38.0285 19.8219 39.1931 15.1666C37.4461 17.4943 35.4079 18.3672 33.0784 17.7852C31.7494 17.4533 30.7995 16.4897 29.748 15.4233C28.035 13.6858 26.0527 11.675 21.7225 11.675ZM12.9872 22.1497C8.32847 22.1497 5.41661 24.4774 4.25195 29.1327C5.99901 26.805 8.0372 25.9321 10.3667 26.5141C11.6957 26.846 12.6456 27.8096 13.6971 28.876C15.4101 30.6135 17.3924 32.6243 21.7225 32.6243C26.3813 32.6243 29.2932 30.2965 30.4578 25.6412C28.7108 27.9689 26.6726 28.8418 24.3431 28.2598C23.0141 27.9279 22.0642 26.9643 21.0127 25.8979C19.2997 24.1604 17.3174 22.1497 12.9872 22.1497Z" fill="url(#paint0_linear_72_759)"/>
</g>
<defs>
<linearGradient id="paint0_linear_72_759" x1="3.28129" y1="18.3788" x2="33.4476" y2="35.785" gradientUnits="userSpaceOnUse">
<stop stop-color="#2298BD"/>
<stop offset="1" stop-color="#0ED7B5"/>
</linearGradient>
<clipPath id="clip0_72_759">
<rect width="34.9412" height="21.0051" fill="white" transform="translate(4.25195 11.6471)"/>
</clipPath>
</defs>
</svg>
